<mxfile host="65bd71144e">
    <diagram name="PÃ¡gina-1" id="CQLlbj_NOB8pupHB3dln">
        <mxGraphModel dx="1127" dy="763" grid="1" gridSize="10" guides="1" tooltips="1" connect="1" arrows="1" fold="1" page="1" pageScale="1" pageWidth="827" pageHeight="1169" math="0" shadow="0">
            <root>
                <mxCell id="0"/>
                <mxCell id="1" parent="0"/>
                <mxCell id="VhMiGVEwkCbWm7OAj6H--3" value="" style="rounded=0;whiteSpace=wrap;html=1;" parent="1" vertex="1">
                    <mxGeometry x="40" y="40" width="150" height="240" as="geometry"/>
                </mxCell>
                <mxCell id="VhMiGVEwkCbWm7OAj6H--4" value="&lt;h1 style=&quot;margin-top: 0px; font-size: 17px;&quot;&gt;&lt;span style=&quot;background-color: initial;&quot;&gt;&lt;font style=&quot;font-size: 17px;&quot;&gt;Templates&lt;/font&gt;&lt;/span&gt;&lt;/h1&gt;&lt;h1 style=&quot;margin-top: 0px; margin-bottom: 1.08px; line-height: 50%;&quot;&gt;&lt;span style=&quot;background-color: initial; font-weight: normal;&quot;&gt;&lt;font style=&quot;font-size: 13px;&quot;&gt;Define what fields a card will have&lt;/font&gt;&lt;/span&gt;&lt;br&gt;&lt;/h1&gt;" style="text;html=1;whiteSpace=wrap;overflow=hidden;rounded=0;" parent="1" vertex="1">
                    <mxGeometry x="50" y="50" width="130" height="90" as="geometry"/>
                </mxCell>
                <mxCell id="VhMiGVEwkCbWm7OAj6H--6" value="Immersive&lt;div&gt;&amp;nbsp;Template&lt;/div&gt;" style="html=1;whiteSpace=wrap;align=center;" parent="1" vertex="1">
                    <mxGeometry x="50" y="150" width="130" height="50" as="geometry"/>
                </mxCell>
                <mxCell id="VhMiGVEwkCbWm7OAj6H--19" value="" style="rounded=0;whiteSpace=wrap;html=1;" parent="1" vertex="1">
                    <mxGeometry x="200" y="40" width="150" height="240" as="geometry"/>
                </mxCell>
                <mxCell id="VhMiGVEwkCbWm7OAj6H--20" value="&lt;h1 style=&quot;margin-top: 0px; font-size: 17px;&quot;&gt;&lt;span style=&quot;background-color: initial;&quot;&gt;Services&lt;/span&gt;&lt;/h1&gt;&lt;h1 style=&quot;margin-top: 0px; margin-bottom: 1.08px; line-height: 12px;&quot;&gt;&lt;span style=&quot;background-color: initial; font-weight: normal;&quot;&gt;&lt;font style=&quot;font-size: 13px;&quot;&gt;API routes configurations&lt;/font&gt;&lt;/span&gt;&lt;/h1&gt;" style="text;html=1;whiteSpace=wrap;overflow=hidden;rounded=0;" parent="1" vertex="1">
                    <mxGeometry x="210" y="50" width="130" height="90" as="geometry"/>
                </mxCell>
                <mxCell id="VhMiGVEwkCbWm7OAj6H--21" value="Immersive&lt;div&gt;&amp;nbsp;Template&lt;/div&gt;" style="html=1;whiteSpace=wrap;align=center;" parent="1" vertex="1">
                    <mxGeometry x="210" y="150" width="130" height="50" as="geometry"/>
                </mxCell>
                <mxCell id="VhMiGVEwkCbWm7OAj6H--22" value="" style="rounded=0;whiteSpace=wrap;html=1;" parent="1" vertex="1">
                    <mxGeometry x="360" y="40" width="150" height="240" as="geometry"/>
                </mxCell>
                <mxCell id="VhMiGVEwkCbWm7OAj6H--23" value="&lt;h1 style=&quot;margin-top: 0px; font-size: 17px;&quot;&gt;&lt;span style=&quot;background-color: initial;&quot;&gt;Routines&lt;/span&gt;&lt;/h1&gt;&lt;h1 style=&quot;margin-top: 0px; margin-bottom: 1.08px; line-height: 12px;&quot;&gt;&lt;span style=&quot;background-color: initial; font-weight: normal;&quot;&gt;&lt;font style=&quot;font-size: 13px;&quot;&gt;Define the steps to transform the input data into anki deck&amp;nbsp;&lt;/font&gt;&lt;/span&gt;&lt;/h1&gt;" style="text;html=1;whiteSpace=wrap;overflow=hidden;rounded=0;" parent="1" vertex="1">
                    <mxGeometry x="370" y="50" width="130" height="90" as="geometry"/>
                </mxCell>
                <mxCell id="VhMiGVEwkCbWm7OAj6H--24" value="Immersive&lt;div&gt;&amp;nbsp;Template&lt;/div&gt;" style="html=1;whiteSpace=wrap;align=center;" parent="1" vertex="1">
                    <mxGeometry x="370" y="150" width="130" height="50" as="geometry"/>
                </mxCell>
                <mxCell id="VhMiGVEwkCbWm7OAj6H--25" value="" style="rounded=0;whiteSpace=wrap;html=1;" parent="1" vertex="1">
                    <mxGeometry x="520" y="40" width="150" height="240" as="geometry"/>
                </mxCell>
                <mxCell id="VhMiGVEwkCbWm7OAj6H--26" value="&lt;h1 style=&quot;margin-top: 0px; font-size: 17px;&quot;&gt;&lt;span style=&quot;background-color: initial;&quot;&gt;&lt;font style=&quot;font-size: 17px;&quot;&gt;Modules&lt;/font&gt;&lt;/span&gt;&lt;/h1&gt;&lt;h1 style=&quot;margin-top: 0px; margin-bottom: 1.08px; line-height: 50%;&quot;&gt;&lt;span style=&quot;background-color: initial; font-weight: normal;&quot;&gt;&lt;font style=&quot;font-size: 13px;&quot;&gt;Interface to external dependencies&lt;/font&gt;&lt;/span&gt;&lt;br&gt;&lt;/h1&gt;" style="text;html=1;whiteSpace=wrap;overflow=hidden;rounded=0;" parent="1" vertex="1">
                    <mxGeometry x="530" y="50" width="130" height="90" as="geometry"/>
                </mxCell>
                <mxCell id="VhMiGVEwkCbWm7OAj6H--27" value="Immersive&lt;div&gt;&amp;nbsp;Template&lt;/div&gt;" style="html=1;whiteSpace=wrap;align=center;" parent="1" vertex="1">
                    <mxGeometry x="530" y="150" width="130" height="50" as="geometry"/>
                </mxCell>
            </root>
        </mxGraphModel>
    </diagram>
</mxfile>